# xmcd
#
# Track frame offsets:
# 150
# 10023
# 23915
# 36388
# 44930
# 53915
# 64433
# 74755
# 88695
# 102435
# 113390
# 124795
# 136015
# 145830
# 157228
#
# Disc length: 2234 seconds
#
#
# Revision: 0
# Processed by: cddbd v1.5.1PL2 Copyright (c) Steve Scherf et al.
# Submitted via: FreeRIP 2.944 
#
DISCID=de08b80f
DTITLE=Various Artist - #1 Country Hits 50's and 60's
DYEAR=1900
DGENRE=Country
TTITLE0=Johnny Cash - Ballad Of A Teenage Queen
TTITLE1=Webb Pierce - Wondering
TTITLE2=Kitty Wells - Makin' Believe
TTITLE3=Jerry Lee Lewis - Great Balls Of Fire
TTITLE4=Faron Young - Hello Walls
TTITLE5=Ferlin Husky - Wings Of A Dove
TTITLE6=Freddy Fender - Before The Next Teardrop Falls
TTITLE7=Jeannie C. Riley - Harper Valley PTA
TTITLE8=Barbara Fairchild - Teddy Bear Song
TTITLE9=Johnny Paycheck - Take This Job And Shove It
TTITLE10=Sammi Smith - Help Me Make It Through The Night
TTITLE11=George Jones - Tender Years
TTITLE12=Del Reeves - Girl On The Billboard
TTITLE13=Stonewall Jackson - BJ The DJ
TTITLE14=Ferlin Husky - Gone
EXTD=
EXTT0=
EXTT1=
EXTT2=
EXTT3=
EXTT4=
EXTT5=
EXTT6=
EXTT7=
EXTT8=
EXTT9=
EXTT10=
EXTT11=
EXTT12=
EXTT13=
EXTT14=
PLAYORDER=
